# xmcd CD database file
#
# Track frame offsets:
#	182
#	33795
#	67845
#	101040
#	136682
#	161822
#	175937
#	189465
#	216690
#	254382
#
# Disc length: 3718 seconds
#
# Revision: 4
# Processed by: cddbd v1.5.2PL0 Copyright (c) Steve Scherf et al.
# Submitted via: CDex 1.51
#
DISCID=8b0e840a
DTITLE=John Abercrombie  - Live
DYEAR=1989
DGENRE=Jazz
TTITLE0=Furs On Ice
TTITLE1=Stella By Starlight
TTITLE2=Alice In Wonderland
TTITLE3=Beautiful Love
TTITLE4=Innerplay
TTITLE5=Light Beam
TTITLE6=Drum Solo
TTITLE7=Four On One
TTITLE8=Samurai Hee-Haw
TTITLE9=Haunted Heart
EXTD=John Abercrombie - Guitar - Guitar Synthesizer\nMarc Johnson - Bass\nPeter Erskine - Drums\nECM 1390\n(c) 1989 YEAR: 1989
EXTT0=
EXTT1=
EXTT2=
EXTT3=
EXTT4=
EXTT5=
EXTT6=
EXTT7=
EXTT8=
EXTT9=
PLAYORDER=
